<svg xmlns="http://www.w3.org/2000/svg" viewBox="0 0 640 480">
  <g fill-rule="evenodd">
    <path fill="#009b3a" d="M0 0h640v480H0z"/>
    <path fill="#fedf00" d="M321.4 436l301.5-195.7L319.6 44 17.1 240.7 321.4 436z"/>
    <path fill="#002776" d="M452.8 240c0 70.3-57.1 127.3-127.6 127.3A127.4 127.4 0 1 1 452.8 240z"/>
    <path fill="#fff" d="M283.3 316.3l-4-2.3-4 2 .9-4.5-3.2-3.4 4.5-.5 2.2-4 1.9 4.2 4.4.8-3.3 3m86 26.3l-3.9-2.3-4 2 .8-4.5-3.1-3.3 4.5-.5 2.1-4.1 2 4.2 4.4.8-3.4 3.1m-36.2-30l-3.4-2-3.5 1.8.8-3.9-2.8-2.9 4-.4 1.8-3.6 1.6 3.7 3.9.7-3 2.7m87-8.5l-3.4-2-3.5 1.8.8-3.9-2.7-2.8 3.9-.4 1.8-3.5 1.6 3.6 3.8.7-2.9 2.6m-87.3-22l-4-2.2-4 2 .8-4.6-3.1-3.3 4.5-.5 2.1-4.1 2 4.2 4.4.8-3.4 3.2m-104.6-35l-4-2.2-4 2 1-4.6-3.3-3.3 4.6-.5 2-4.1 2 4.2 4.4.8-3.3 3.1m13.3 57.2l-4-2.3-4.1 2 .9-4.5-3.2-3.3 4.5-.6 2.1-4 2 4.2 4.4.8-3.3 3.1m132-67.3l-3.6-2-3.6 1.8.8-4-2.8-3 4-.5 1.9-3.6 1.7 3.8 4 .7-3 2.7m-6.7 38.3l-2.7-1.6-2.9 1.4.6-3.2-2.2-2.3 3.2-.4 1.5-2.8 1.3 3 3 .5-2.2 2.2m-142.2 50.4l-2.7-1.5-2.7 1.3.6-3-2.1-2.2 3-.4 1.4-2.7 1.3 2.8 3 .6-2.3 2m200.2 15.3l-2.2-1.1-2.2 1 .5-2.3-1.7-1.6 2.4-.3 1.2-2 1 2 2.5.5-1.9 1.5"/>
    <path fill="#fff" d="M219.3 287.6l-2.7-1.5-2.7 1.3.6-3-2.1-2.2 3-.4 1.4-2.7 1.3 2.8 3 .6-2.3 2"/>
    <g fill="#fff">
      <path d="M219.3 287.6l-2.7-1.5-2.7 1.3.6-3-2.1-2.2 3-.4 1.4-2.7 1.3 2.8 3 .6-2.3 2m42.3 3l-2.6-1.4-2.7 1.3.6-3-2.1-2.2 3-.4 1.4-2.7 1.3 2.8 3 .5-2.3 2.1m-4.8 17l-2.6-1.5-2.7 1.4.6-3-2.1-2.3 3-.4 1.4-2.7 1.3 2.8 3 .6-2.3 2m87.4-22.2l-2.6-1.6-2.8 1.4.6-3-2-2.3 3-.3 1.4-2.7 1.2 2.8 3.1.5-2.3 2.1m-25.1 3l-2.7-1.5-2.7 1.4.6-3-2-2.3 3-.3 1.4-2.8 1.2 2.9 3.1.5-2.3 2.1m-68.8-5.8l-1.7-1-1.7.8.4-1.9-1.3-1.4 1.9-.2.8-1.7.8 1.8 1.9.3-1.4 1.3m167.8 45.4l-2.6-1.5-2.7 1.4.6-3-2.1-2.3 3-.4 1.4-2.7 1.3 2.8 3 .6-2.3 2m-20.8 6l-2.2-1.3-2.3 1.2.5-2.6-1.8-1.9 2.6-.3 1.2-2.3 1.1 2.4 2.5.5-2 1.7m10.4 2.3l-2-1.2-2.1 1 .4-2.3-1.6-1.7 2.4-.3 1.1-2 1 2 2.3.5-1.7 1.6m29.1-22.8l-2-1-2 1 .5-2.3-1.6-1.7 2.3-.3 1-2 1 2.1 2.1.4-1.6 1.6m-38.8 41.8l-2.5-1.4-2.7 1.2.6-2.8-2-2 3-.4 1.3-2.5 1.2 2.6 3 .5-2.3 1.9m.6 14.2l-2.4-1.4-2.4 1.3.5-2.6-1.8-2 2.7-.4 1.2-2.4 1.1 2.5 2.7.5-2 1.8m-19-23.1l-1.9-1.2-2 1 .4-2.2-1.5-1.7 2.2-.2 1-2 1 2 2.2.4-1.6 1.6m-17.8 2.3l-2-1-2 .9.5-2.2-1.5-1.6 2.2-.3 1-1.9 1 2 2.2.4-1.7 1.5m-30.4-24.6l-2-1.1-2 1 .5-2.3-1.6-1.6 2.3-.3 1-2 1 2 2.2.5-1.7 1.5m3.7 57l-1.6-.9-1.8.9.4-2-1.3-1.4 1.9-.2.9-1.7.8 1.8 1.9.3-1.4 1.3m-46.2-86.6l-4-2.3-4 2 .9-4.5-3.2-3.3 4.5-.6 2.2-4 1.9 4.2 4.4.8-3.3 3.1"/>
      <path d="M324.7 305.7c0-28.6-23.4-51.8-52.2-51.8s-52.3 23.2-52.3 51.8 23.4 51.8 52.3 51.8 52.2-23.2 52.2-51.8z"/>
    </g>
    <path fill="#009b3a" d="M168.3 200.5l9.9 8.7s10.4-7.3 15.5-11.4c11.5-9 23.6-16.7 39.8-21 16.1-4.3 22.2-4.3 38.9-4.3 16.1 0 35.4 3.1 53.1 12.4 17.8 9.3 28.3 20.5 36.7 29.2 8.5 8.8 19.9 24.9 19.9 24.9l8-9.8s-10-13-14.3-17.9c-4.3-4.8-13.6-14.9-25.5-24.2a235.2 235.2 0 0 0-26.2-17.3c-7.3-4-21.7-9.9-35.4-12.4-13.6-2.5-37.3-3.7-48.2-1.2-11 2.4-18.5 4.3-29.2 9.3a178.6 178.6 0 0 0-43 29.2z"/>
    <path fill="#fedf00" d="M182.3 262.8c0-43.9 35.9-79.5 80.1-79.5s80.1 35.6 80.1 79.5c0 43.9-35.9 79.5-80.1 79.5s-80.1-35.6-80.1-79.5z"/>
    <path fill="#002776" d="M331.8 292.4c-2.9 5-13.9 24-43.7 31.5-18.4 4.7-34.8 2.6-43.4 0-3.1-1-12-4.2-20.8-11.5-4-3.2-10.7-10.5-17-23.6-8.1-17-9.7-33.4-9.7-33.4s5.2-2.5 8.2-3.5c3-1 4.9-1.5 8.4-1.5 3.4 0 7.8 1.1 7.8 5.4 0 4.2-.4 9.4-.4 9.4s1.2 9.2 5.9 19.4c4.7 10.3 10.9 16.9 19.8 22.3 8.9 5.4 19.4 8 30.7 6.8 11.3-1.3 19.2-4.3 24.4-7.4 5.2-3.1 9.3-6.3 13.7-11.8 4.4-5.5 9-14.9 10.4-24.3 1.4-9.4.7-15.5.7-15.5s-1.5-13.5-11.7-27c-10.2-13.4-22-19.8-32.5-23.7-10.4-4-21.6-5.5-33.1-4-11.6 1.5-22.8 6.2-30.2 11.8-7.5 5.6-10.1 9.5-10.1 9.5l-8.5-6.2s5.7-8.7 15.2-15.3c9.5-6.6 22.7-13.2 40.1-15.2 17.4-2 36.3 1.5 51.4 9.8 15.1 8.3 24.8 19.1 29.8 26 5 6.8 9.7 16.3 11.7 26.2 2 10 2.3 23.3-1.5 36.4-3.8 13.2-9.5 23.5-16 30.9z"/>
  </g>
</svg>