<svg xmlns="http://www.w3.org/2000/svg" viewBox="0 0 640 480">
  <g fill-rule="evenodd">
    <g stroke-width="1pt">
      <path fill="#bd3d44" d="M0 0h640v480H0"/>
      <path fill="#fff" d="M0 55.3h640v55.4H0m0 55.3h640v55.4H0m0 55.3h640V277H0m0 55.4h640v55.3H0m0 55.4h640V443H0"/>
    </g>
    <path fill="#192f5d" d="M0 0h364.8v258.5H0"/>
    <g fill="#fff">
      <path d="M30.4 11l3.4 10.3h10.6l-8.6 6.3 3.3 10.3-8.7-6.4-8.6 6.3L25 27.6l-8.7-6.3h10.9zm60.8 0l3.3 10.3h10.8l-8.7 6.3 3.2 10.3-8.6-6.4-8.7 6.3 3.3-10.2-8.6-6.3h10.6zm60.8 0l3.3 10.3H166l-8.6 6.3 3.3 10.3-8.7-6.4-8.7 6.3 3.3-10.2-8.7-6.3h10.8zm60.8 0l3.3 10.3h10.8l-8.7 6.3 3.3 10.3-8.7-6.4-8.7 6.3 3.4-10.2-8.8-6.3h10.7zm60.8 0l3.3 10.3h10.7l-8.6 6.3 3.3 10.3-8.7-6.4-8.7 6.3 3.3-10.2-8.6-6.3h10.7zm60.8 0l3.3 10.3h10.8l-8.8 6.3 3.4 10.3-8.7-6.4-8.7 6.3 3.4-10.2-8.8-6.3h10.8zM60.8 37l3.3 10.2H75l-8.7 6.2 3.2 10.3-8.5-6.3-8.7 6.3 3.2-10.3-8.5-6.2h10.7zm60.8 0l3.4 10.2h10.7l-8.8 6.2 3.4 10.3-8.7-6.3-8.7 6.3 3.3-10.3-8.7-6.2h10.8zm60.8 0l3.3 10.2h10.8l-8.7 6.2 3.3 10.3-8.7-6.3-8.7 6.3 3.3-10.3-8.6-6.2H179zm60.8 0l3.4 10.2h10.7l-8.8 6.2 3.4 10.3-8.7-6.3-8.6 6.3 3.2-10.3-8.7-6.2H240zm60.8 0l3.3 10.2h10.8l-8.7 6.2 3.3 10.3-8.7-6.3-8.7 6.3 3.3-10.3-8.6-6.2h10.7zM30.4 62.6l3.4 10.4h10.6l-8.6 6.2 3.3 10.3-8.7-6.3-8.6 6.3L25 79.2l-8.7-6.2h10.9zm60.8 0l3.3 10.4h10.8l-8.7 6.2 3.2 10.3-8.6-6.3-8.7 6.3 3.3-10.3-8.6-6.2h10.6zm60.8 0l3.3 10.4H166l-8.6 6.2 3.3 10.3-8.7-6.3-8.7 6.3 3.3-10.3-8.7-6.2h10.8zm60.8 0l3.3 10.4h10.8l-8.7 6.2 3.3 10.3-8.7-6.3-8.7 6.3 3.4-10.3-8.8-6.2h10.7zm60.8 0l3.3 10.4h10.7l-8.6 6.2 3.3 10.3-8.7-6.3-8.7 6.3 3.3-10.3-8.6-6.2h10.7zm60.8 0l3.3 10.4h10.8l-8.8 6.2 3.4 10.3-8.7-6.3-8.7 6.3 3.4-10.3-8.8-6.2h10.8zM60.8 88.6l3.3 10.2H75l-8.7 6.3 3.3 10.3-8.7-6.4-8.7 6.3 3.3-10.2-8.6-6.3h10.7zm60.8 0l3.4 10.2h10.7l-8.8 6.3 3.4 10.3-8.7-6.4-8.7 6.3 3.3-10.2-8.7-6.3h10.8zm60.8 0l3.3 10.2h10.8l-8.7 6.3 3.3 10.3-8.7-6.4-8.7 6.3 3.3-10.2-8.6-6.3H179zm60.8 0l3.4 10.2h10.7l-8.7 6.3 3.3 10.3-8.7-6.4-8.6 6.3 3.2-10.2-8.7-6.3H240zm60.8 0l3.3 10.2h10.8l-8.7 6.3 3.3 10.3-8.7-6.4-8.7 6.3 3.3-10.2-8.6-6.3h10.7zM30.4 114.5l3.4 10.2h10.6l-8.6 6.3 3.3 10.3-8.7-6.4-8.6 6.3L25 131l-8.7-6.3h10.9zm60.8 0l3.3 10.2h10.8l-8.7 6.3 3.2 10.2-8.6-6.3-8.7 6.3 3.3-10.2-8.6-6.3h10.6zm60.8 0l3.3 10.2H166l-8.6 6.3 3.3 10.2-8.7-6.3-8.7 6.3 3.3-10.2-8.7-6.3h10.8zm60.8 0l3.3 10.2h10.8l-8.7 6.3 3.3 10.2-8.7-6.3-8.7 6.3 3.4-10.2-8.8-6.3h10.7zm60.8 0l3.3 10.2h10.7l-8.6 6.3 3.3 10.2-8.7-6.3-8.7 6.3 3.3-10.2-8.6-6.3h10.7zm60.8 0l3.3 10.2h10.8l-8.8 6.3 3.4 10.2-8.7-6.3-8.7 6.3 3.4-10.2-8.8-6.3h10.8zM60.8 140.3l3.3 10.3H75l-8.7 6.2 3.3 10.3-8.7-6.4-8.7 6.4 3.3-10.3-8.6-6.3h10.7zm60.8 0l3.4 10.3h10.7l-8.8 6.2 3.4 10.3-8.7-6.4-8.7 6.4 3.3-10.3-8.7-6.3h10.8zm60.8 0l3.3 10.3h10.8l-8.7 6.2 3.3 10.3-8.7-6.4-8.7 6.4 3.3-10.3-8.6-6.3H179zm60.8 0l3.4 10.3h10.7l-8.7 6.2 3.3 10.3-8.7-6.4-8.6 6.4 3.2-10.3-8.7-6.3H240zm60.8 0l3.3 10.3h10.8l-8.7 6.2 3.3 10.3-8.7-6.4-8.7 6.4 3.3-10.3-8.6-6.3h10.7zM30.4 166.1l3.4 10.3h10.6l-8.6 6.3 3.3 10.1-8.7-6.2-8.6 6.2 3.2-10.2-8.7-6.3h10.9zm60.8 0l3.3 10.3h10.8l-8.7 6.3 3.3 10.1-8.7-6.2-8.7 6.2 3.4-10.2-8.7-6.3h10.6zm60.8 0l3.3 10.3H166l-8.6 6.3 3.3 10.1-8.7-6.2-8.7 6.2 3.3-10.2-8.7-6.3h10.8zm60.8 0l3.3 10.3h10.8l-8.7 6.3 3.3 10.1-8.7-6.2-8.7 6.2 3.4-10.2-8.8-6.3h10.7zm60.8 0l3.3 10.3h10.7l-8.6 6.3 3.3 10.1-8.7-6.2-8.7 6.2 3.3-10.2-8.6-6.3h10.7zm60.8 0l3.3 10.3h10.8l-8.8 6.3 3.4 10.1-8.7-6.2-8.7 6.2 3.4-10.2-8.8-6.3h10.8zM60.8 192l3.3 10.2H75l-8.7 6.3 3.3 10.3-8.7-6.4-8.7 6.3 3.3-10.2-8.6-6.3h10.7zm60.8 0l3.4 10.2h10.7l-8.8 6.3 3.4 10.3-8.7-6.4-8.7 6.3 3.3-10.2-8.7-6.3h10.8zm60.8 0l3.3 10.2h10.8l-8.7 6.3 3.3 10.3-8.7-6.4-8.7 6.3 3.3-10.2-8.6-6.3H179zm60.8 0l3.4 10.2h10.7l-8.7 6.3 3.3 10.3-8.7-6.4-8.6 6.3 3.2-10.2-8.7-6.3H240zm60.8 0l3.3 10.2h10.8l-8.7 6.3 3.3 10.3-8.7-6.4-8.7 6.3 3.3-10.2-8.6-6.3h10.7zM30.4 217.9l3.4 10.2h10.6l-8.6 6.3 3.3 10.2-8.7-6.3-8.6 6.3 3.2-10.3-8.7-6.3h10.9zm60.8 0l3.3 10.2h10.8l-8.7 6.3 3.3 10.2-8.7-6.3-8.7 6.3 3.4-10.3-8.7-6.3h10.6zm60.8 0l3.3 10.2H166l-8.6 6.3 3.3 10.2-8.7-6.3-8.7 6.3 3.3-10.3-8.7-6.3h10.8zm60.8 0l3.3 10.2h10.8l-8.7 6.3 3.3 10.2-8.7-6.3-8.7 6.3 3.4-10.3-8.8-6.3h10.7zm60.8 0l3.3 10.2h10.7l-8.6 6.3 3.3 10.2-8.7-6.3-8.7 6.3 3.3-10.3-8.6-6.3h10.7zm60.8 0l3.3 10.2h10.8l-8.8 6.3 3.4 10.2-8.7-6.3-8.7 6.3 3.4-10.3-8.8-6.3h10.8z"/>
    </g>
  </g>
</svg>